<?xml version="1.0" encoding="UTF-8" standalone="no"?>
<svg
   xmlns:dc="http://purl.org/dc/elements/1.1/"
   xmlns:cc="http://creativecommons.org/ns#"
   xmlns:rdf="http://www.w3.org/1999/02/22-rdf-syntax-ns#"
   xmlns:svg="http://www.w3.org/2000/svg"
   xmlns="http://www.w3.org/2000/svg"
   id="svg6744"
   version="1.1"
   viewBox="0 0 10.15607 9.9302692"
   height="9.9302692mm"
   width="10.15607mm">
  <defs
     id="defs6738">
    <clipPath
       id="clipPath6605"
       clipPathUnits="userSpaceOnUse">
      <path
         d="m 174.56342,78.268962 1.10452,3.295862 3.49323,-0.03238 -2.79324,2.068937 1.11026,3.312255 -2.83083,-2.017189 -2.80705,2.079462 1.04368,-3.315629 -2.84511,-2.027077 3.47587,-0.03198 z"
         id="path6607"
         style="display:inline;fill:none;fill-opacity:1;stroke:#010101;stroke-width:0.26458332;stroke-miterlimit:4;stroke-dasharray:none;stroke-opacity:1" />
    </clipPath>
    <filter
       height="1.322091"
       y="-0.16104551"
       width="1.3074261"
       x="-0.15371305"
       id="filter4535"
       style="color-interpolation-filters:sRGB">
      <feGaussianBlur
         id="feGaussianBlur4537"
         stdDeviation="0.58425642" />
    </filter>
    <clipPath
       id="clipPath6719"
       clipPathUnits="userSpaceOnUse">
      <path
         d="m 174.30638,67.455368 0.80691,2.407802 2.55199,-0.02365 -2.04061,1.511469 0.8111,2.419777 -2.06807,-1.473663 -2.0507,1.519157 0.76247,-2.422243 -2.07851,-1.480887 2.5393,-0.02336 z"
         id="path6721"
         style="display:inline;fill:#c9c1b4;fill-opacity:1;stroke:none;stroke-width:0.19329213;stroke-miterlimit:4;stroke-dasharray:none;stroke-opacity:1" />
    </clipPath>
    <clipPath
       id="clipPath6605-1"
       clipPathUnits="userSpaceOnUse">
      <path
         d="m 174.56342,78.268962 1.10452,3.295862 3.49323,-0.03238 -2.79324,2.068937 1.11026,3.312255 -2.83083,-2.017189 -2.80705,2.079462 1.04368,-3.315629 -2.84511,-2.027077 3.47587,-0.03198 z"
         id="path6607-0"
         style="display:inline;fill:none;fill-opacity:1;stroke:#010101;stroke-width:0.26458332;stroke-miterlimit:4;stroke-dasharray:none;stroke-opacity:1" />
    </clipPath>
    <filter
       height="1.322091"
       y="-0.16104551"
       width="1.3074261"
       x="-0.15371305"
       id="filter4535-6"
       style="color-interpolation-filters:sRGB">
      <feGaussianBlur
         id="feGaussianBlur4537-5"
         stdDeviation="0.58425642" />
    </filter>
    <clipPath
       id="clipPath6605-3"
       clipPathUnits="userSpaceOnUse">
      <path
         d="m 174.56342,78.268962 1.10452,3.295862 3.49323,-0.03238 -2.79324,2.068937 1.11026,3.312255 -2.83083,-2.017189 -2.80705,2.079462 1.04368,-3.315629 -2.84511,-2.027077 3.47587,-0.03198 z"
         id="path6607-6"
         style="display:inline;fill:none;fill-opacity:1;stroke:#010101;stroke-width:0.26458332;stroke-miterlimit:4;stroke-dasharray:none;stroke-opacity:1" />
    </clipPath>
    <filter
       height="1.322091"
       y="-0.16104551"
       width="1.3074261"
       x="-0.15371305"
       id="filter4535-3"
       style="color-interpolation-filters:sRGB">
      <feGaussianBlur
         id="feGaussianBlur4537-50"
         stdDeviation="0.58425642" />
    </filter>
  </defs>
  <metadata
     id="metadata6741">
    <rdf:RDF>
      <cc:Work
         rdf:about="">
        <dc:format>image/svg+xml</dc:format>
        <dc:type
           rdf:resource="http://purl.org/dc/dcmitype/StillImage" />
        <dc:title></dc:title>
      </cc:Work>
    </rdf:RDF>
  </metadata>
  <g
     transform="translate(-1.6038738,-12.779508)"
     style="display:inline"
     id="layer1">
    <path
       id="path6627"
       d="m 3.6391129,22.395656 3.07069,-2.233731 m 1.841489,-1.406974 3.0513301,-2.253084"
       style="display:inline;fill:none;fill-rule:evenodd;stroke:#464540;stroke-width:0.52969581;stroke-linecap:butt;stroke-linejoin:miter;stroke-miterlimit:4;stroke-dasharray:none;stroke-opacity:1" />
    <path
       id="path6629"
       d="m 6.7021529,20.099764 2.93823,2.068171 -1.14105,-3.451708"
       style="display:inline;fill:none;fill-rule:evenodd;stroke:#464540;stroke-width:0.42333326;stroke-linecap:butt;stroke-linejoin:miter;stroke-miterlimit:4;stroke-dasharray:none;stroke-opacity:1" />
    <path
       id="path6631"
       d="m 1.8669129,16.690845 2.80986,2.01112"
       style="display:inline;fill:none;fill-rule:evenodd;stroke:#464540;stroke-width:0.34395832;stroke-linecap:butt;stroke-linejoin:miter;stroke-miterlimit:4;stroke-dasharray:none;stroke-opacity:1" />
    <path
       id="path6633"
       d="m 6.6068929,12.980846 1.17061,3.60558"
       style="display:inline;fill:none;fill-rule:evenodd;stroke:#464540;stroke-width:0.39729166;stroke-linecap:round;stroke-linejoin:round;stroke-miterlimit:4;stroke-dasharray:none;stroke-opacity:1" />
    <path
       d="M 6.5493425,13.283374 7.6538619,16.579236 11.147092,16.54686 8.3538553,18.615798 9.4641139,21.928053 6.6332795,19.910864 3.8262272,21.990326 4.8699117,18.674697 2.0247994,16.64762 5.5006663,16.615637 Z"
       id="path6563-33"
       style="display:inline;fill:#393834;fill-opacity:1;stroke:none;stroke-width:0.26458332;stroke-miterlimit:4;stroke-dasharray:none;stroke-opacity:1" />
    <path
       transform="translate(-168.02661,-65.001162)"
       clip-path="url(#clipPath6605-3)"
       d="m 174.56342,78.268962 1.10452,3.295862 3.49323,-0.03238 -2.79324,2.068937 1.11026,3.312255 -2.83083,-2.017189 -2.80705,2.079462 1.04368,-3.315629 -2.84511,-2.027077 3.47587,-0.03198 z"
       id="path6563-3"
       style="display:inline;fill:none;fill-opacity:1;stroke:#010101;stroke-width:0.5291667;stroke-miterlimit:4;stroke-dasharray:none;stroke-opacity:1;filter:url(#filter4535-3)" />
    <path
       d="m 6.536815,13.267802 1.1045194,3.295863 3.4932296,-0.03238 -2.7932361,2.068938 1.1102586,3.312254 -2.8308344,-2.017189 -2.8070524,2.079462 1.0436846,-3.315629 -2.8451124,-2.027077 3.4758669,-0.03198 z"
       id="path6563-7"
       style="display:inline;fill:none;fill-opacity:1;stroke:#010101;stroke-width:0.26458332;stroke-miterlimit:4;stroke-dasharray:none;stroke-opacity:1" />
    <path
       d="m 6.5469227,14.508942 0.8069098,2.407802 2.5519897,-0.02365 -2.0406074,1.511468 0.8111029,2.419778 -2.0680746,-1.473664 -2.0507005,1.519157 0.762467,-2.422242 -2.0785055,-1.480887 2.5393051,-0.02337 z"
       id="path6563-2"
       style="display:inline;fill:#c9c1b4;fill-opacity:1;stroke:none;stroke-width:0.19329213;stroke-miterlimit:4;stroke-dasharray:none;stroke-opacity:1" />
  </g>
</svg>
