<?xml version="1.0" encoding="UTF-8" standalone="no"?>
<svg
   xmlns:dc="http://purl.org/dc/elements/1.1/"
   xmlns:cc="http://creativecommons.org/ns#"
   xmlns:rdf="http://www.w3.org/1999/02/22-rdf-syntax-ns#"
   xmlns:svg="http://www.w3.org/2000/svg"
   xmlns="http://www.w3.org/2000/svg"
   id="svg6744"
   version="1.1"
   viewBox="0 0 10.15607 9.9302702"
   height="9.9302702mm"
   width="10.15607mm">
  <defs
     id="defs6738">
    <clipPath
       id="clipPath6605"
       clipPathUnits="userSpaceOnUse">
      <path
         d="m 174.56342,78.268962 1.10452,3.295862 3.49323,-0.03238 -2.79324,2.068937 1.11026,3.312255 -2.83083,-2.017189 -2.80705,2.079462 1.04368,-3.315629 -2.84511,-2.027077 3.47587,-0.03198 z"
         id="path6607"
         style="display:inline;fill:none;fill-opacity:1;stroke:#010101;stroke-width:0.26458332;stroke-miterlimit:4;stroke-dasharray:none;stroke-opacity:1" />
    </clipPath>
    <filter
       height="1.322091"
       y="-0.16104551"
       width="1.3074261"
       x="-0.15371305"
       id="filter4535"
       style="color-interpolation-filters:sRGB">
      <feGaussianBlur
         id="feGaussianBlur4537"
         stdDeviation="0.58425642" />
    </filter>
    <clipPath
       id="clipPath6719"
       clipPathUnits="userSpaceOnUse">
      <path
         d="m 174.30638,67.455368 0.80691,2.407802 2.55199,-0.02365 -2.04061,1.511469 0.8111,2.419777 -2.06807,-1.473663 -2.0507,1.519157 0.76247,-2.422243 -2.07851,-1.480887 2.5393,-0.02336 z"
         id="path6721"
         style="display:inline;fill:#c9c1b4;fill-opacity:1;stroke:none;stroke-width:0.19329213;stroke-miterlimit:4;stroke-dasharray:none;stroke-opacity:1" />
    </clipPath>
    <clipPath
       id="clipPath6605-1"
       clipPathUnits="userSpaceOnUse">
      <path
         d="m 174.56342,78.268962 1.10452,3.295862 3.49323,-0.03238 -2.79324,2.068937 1.11026,3.312255 -2.83083,-2.017189 -2.80705,2.079462 1.04368,-3.315629 -2.84511,-2.027077 3.47587,-0.03198 z"
         id="path6607-0"
         style="display:inline;fill:none;fill-opacity:1;stroke:#010101;stroke-width:0.26458332;stroke-miterlimit:4;stroke-dasharray:none;stroke-opacity:1" />
    </clipPath>
    <filter
       height="1.322091"
       y="-0.16104551"
       width="1.3074261"
       x="-0.15371305"
       id="filter4535-6"
       style="color-interpolation-filters:sRGB">
      <feGaussianBlur
         id="feGaussianBlur4537-5"
         stdDeviation="0.58425642" />
    </filter>
  </defs>
  <metadata
     id="metadata6741">
    <rdf:RDF>
      <cc:Work
         rdf:about="">
        <dc:format>image/svg+xml</dc:format>
        <dc:type
           rdf:resource="http://purl.org/dc/dcmitype/StillImage" />
        <dc:title></dc:title>
      </cc:Work>
    </rdf:RDF>
  </metadata>
  <g
     transform="translate(-22.183541,-56.724695)"
     style="display:inline"
     id="layer1">
    <path
       id="path6627-7"
       d="m 24.21878,66.340844 3.070689,-2.233732 m 1.84149,-1.406974 3.05133,-2.253083"
       style="display:inline;fill:none;fill-rule:evenodd;stroke:#464540;stroke-width:0.52969581;stroke-linecap:butt;stroke-linejoin:miter;stroke-miterlimit:4;stroke-dasharray:none;stroke-opacity:1" />
    <path
       id="path6629-8"
       d="m 27.28182,64.044951 2.938229,2.068172 -1.14105,-3.451709"
       style="display:inline;fill:none;fill-rule:evenodd;stroke:#464540;stroke-width:0.42333326;stroke-linecap:butt;stroke-linejoin:miter;stroke-miterlimit:4;stroke-dasharray:none;stroke-opacity:1" />
    <path
       id="path6631-5"
       d="m 22.44658,60.636032 2.80986,2.01112"
       style="display:inline;fill:none;fill-rule:evenodd;stroke:#464540;stroke-width:0.34395832;stroke-linecap:butt;stroke-linejoin:miter;stroke-miterlimit:4;stroke-dasharray:none;stroke-opacity:1" />
    <path
       id="path6633-8"
       d="m 27.18656,56.926033 1.17061,3.605581"
       style="display:inline;fill:none;fill-rule:evenodd;stroke:#464540;stroke-width:0.39729166;stroke-linecap:round;stroke-linejoin:round;stroke-miterlimit:4;stroke-dasharray:none;stroke-opacity:1" />
    <path
       d="m 27.12901,57.22856 1.104519,3.295863 3.49323,-0.03238 -2.793237,2.068938 1.110259,3.312254 -2.830834,-2.017188 -2.807053,2.079461 1.043685,-3.315629 -2.845113,-2.027076 3.475867,-0.03198 z"
       id="path6563-33-9"
       style="display:inline;fill:#393834;fill-opacity:1;stroke:none;stroke-width:0.26458332;stroke-miterlimit:4;stroke-dasharray:none;stroke-opacity:1" />
    <path
       transform="translate(-147.44693,-21.055974)"
       clip-path="url(#clipPath6605-1)"
       d="m 174.56342,78.268962 1.10452,3.295862 3.49323,-0.03238 -2.79324,2.068937 1.11026,3.312255 -2.83083,-2.017189 -2.80705,2.079462 1.04368,-3.315629 -2.84511,-2.027077 3.47587,-0.03198 z"
       id="path6563-3-6"
       style="display:inline;fill:none;fill-opacity:1;stroke:#010101;stroke-width:0.5291667;stroke-miterlimit:4;stroke-dasharray:none;stroke-opacity:1;filter:url(#filter4535-6)" />
    <path
       d="m 27.116482,57.212989 1.104519,3.295862 3.49323,-0.03238 -2.793236,2.068937 1.110259,3.312255 -2.830835,-2.017189 -2.807052,2.079462 1.043684,-3.315629 -2.845112,-2.027077 3.475867,-0.03198 z"
       id="path6563-7-5"
       style="display:inline;fill:none;fill-opacity:1;stroke:#010101;stroke-width:0.26458332;stroke-miterlimit:4;stroke-dasharray:none;stroke-opacity:1" />
    <rect
       clip-path="url(#clipPath6719)"
       y="64.80027"
       x="167.85596"
       height="12.312696"
       width="6.4160452"
       id="rect6681"
       style="display:inline;fill:#c9c1b4;fill-opacity:1;stroke:none;stroke-width:0.39729166;stroke-linecap:round;stroke-linejoin:round;stroke-miterlimit:4;stroke-dasharray:none;stroke-opacity:1"
       transform="translate(-147.20054,-9.0219832)" />
  </g>
</svg>
